<?xml version="1.0" encoding="UTF-8"?>
<svg id="_图层_1" data-name="图层_1" xmlns="http://www.w3.org/2000/svg" version="1.1" viewBox="0 0 2475 2475">
  <!-- Generator: Adobe Illustrator 29.0.0, SVG Export Plug-In . SVG Version: 2.1.0 Build 186)  -->
  <defs>
    <style>
      .st0 {
        fill: #2c2c2c;
      }

      .st1, .st2 {
        fill: #fff;
      }

      .st2 {
        fill-rule: evenodd;
      }

      .st3 {
        isolation: isolate;
      }
    </style>
  </defs>
  <path class="st0" d="M1363.7,1883.5c-272.4,93.7-546.3,156.6-772.5,177.7,165.4,116.8,367.1,185.5,584.5,185.5s295-33.4,424-93.2l288.6,131c36.3,16.2,76.1-13.2,70.7-52l-38.8-312.1c108.5-116.8,189-259.6,233.1-418.2-199.3,139.4-480,273.9-790.2,380.8l.5.5ZM2448.9,964.7c-31.9-94.2-137.4-148.2-313.6-160.5-4.9,0-8.8-.5-13.8-.5-8.8-.5-17.2-1-26-1-161.5-346.5-512.9-586.5-919.8-586.5S159.8,671.2,159.8,1231.7s9.3,159,26.5,234.1c-142.3,124.2-198.3,235.1-164.4,332.3,36.3,108,169.8,162.5,399,162.5s30.4,0,46.1-.5c34.1-.2,68.2-2.2,102.1-5.9,233.1-20.1,517.3-84.4,800-181.6,313.6-107.5,597.8-244.4,799.5-386.2,3.4-3,7.9-5.4,11.3-8.4,271.4-193.4,296.4-330.8,268.5-412.8l.5-.5ZM135.3,1758.8c-11.8-36.3,21.6-97.2,91.3-165.4,2,3.9,2.9,8.3,4.9,13.2,8.4,20.6,17.2,40.7,26.5,60.4,28.5,60.9,62.8,117.8,102.6,170.8-147.2-7.8-213.5-45.6-225.3-79ZM2190.2,1218.9c0-60.9-5.9-120.2-17.7-177.7-4.9-28-11.3-56.4-19.1-82.9-.4-2.2-1.1-4.3-2-6.4-2.5-7.9-4.9-16.2-6.9-23.6,2.5,0,3.9.5,5.9.5,3.4.5,7.8.5,11.3,1,96.2,11.8,160.5,39.3,173.2,74.1,11.8,36.3-20.6,110.9-144.8,215.5v-.5Z"/>
  <g class="st3">
    <path class="st1" d="M879.6,1046.7h199.9l-5.4,44.6h-151.2l-10.7,86.3h132.2l-5.4,44.2h-132.2l-11.2,90h154.9l-5.4,45h-203.6l38-310.2Z"/>
    <path class="st1" d="M1281.4,1171l-22.3,185.9h-47.5l22.7-185.9h-92.9l-22.3,185.9h-47.5l28.1-230h231.3c57,0,85.5,26.2,85.5,78.5s-.4,13.2-1.2,20.7l-16.1,130.9h-47.5l16.1-132.2c.5-5.5.8-9.4.8-11.6,0-28.1-14.3-42.1-43-42.1h-44.2Z"/>
    <path class="st1" d="M1433.8,1356.9l38.8-318.4h47.5l-10.7,88.4h56.6c28.6,0,50.1,6.6,64.4,19.8,14.3,13.2,21.5,32.8,21.5,58.6s-.4,13.5-1.2,20.7l-3.7,31.4c-8,66.4-44.6,99.5-109.9,99.5h-103.2ZM1542.4,1312.7c33,0,51.8-18,56.2-54.1l4.1-33.9c.5-5.5.8-9.4.8-11.6,0-28.1-14.3-42.1-43-42.1h-56.6l-17.3,141.7h55.8Z"/>
    <path class="st1" d="M1789,1125.2c28.4,0,49.8,6.7,64.2,20,14.5,13.4,21.7,33.1,21.7,59.3s-.4,12.7-1.2,19.8l-4.5,37.2h-154v.4c-.6,6.1-.8,10.2-.8,12.4,0,14,4.1,24.4,12.2,31.2,8.1,6.8,21.8,10.1,41.1,10.1h20.2c14.3,0,36.1-1.2,65.3-3.7l-4.5,43c-24.2,2.5-46,3.7-65.3,3.7h-20.2c-33.3,0-57.8-6.7-73.3-20.2-15.6-13.5-23.3-33.3-23.3-59.5s.4-12.8,1.2-19.4l4.1-34.7c3.9-33,14.7-57.9,32.6-74.5,17.9-16.7,43.4-25,76.4-25h8.3ZM1826.6,1221.4v-.4c.5-6.1.8-10.5.8-13.2,0-13.2-3.5-23.3-10.5-30.1-7-6.9-18.1-10.3-33.2-10.3h-8.3c-32.5,0-50.9,18-55.3,54.1h106.6Z"/>
    <path class="st1" d="M1888.5,1226.4c8-66.4,43.5-99.5,106.6-99.5h54.1l10.7-88.4h47.5l-38.8,318.4h-99.5c-57,0-85.5-26.2-85.5-78.5s.4-13.2,1.2-20.7l3.7-31.4ZM2026.5,1312.7l17.3-142.5h-54.1c-31.1,0-48.9,18.3-53.3,54.9l-4.1,33.9c-.6,5.5-.8,9.5-.8,12,0,27.8,14.3,41.7,43,41.7h52Z"/>
  </g>
  <g class="st3">
    <path class="st1" d="M1573.4,1055.1l.7-6h32.6l-.7,6h-13.3l-4.2,35.3h-6.5l4.2-35.3h-12.9Z"/>
    <path class="st1" d="M1670.3,1049.1h6.5l-2.1,17.1h19.9l2.1-17.1h6.5l-5.1,41.3h-6.5l2.2-18.2h-19.9l-2.2,18.2h-6.5l5.1-41.3Z"/>
    <path class="st1" d="M1778.9,1072.8l-12.6-23.7h7.8l8.3,17.2h.8l12.3-17.2h8l-18.1,23.9-2.1,17.4h-6.5l2.1-17.6Z"/>
    <path class="st1" d="M1879.8,1084.5c3.4,0,5.9-.9,7.6-2.5s2.7-4.3,3.2-8l3-24.9h6.5l-3,24.6c-.8,5.9-2.6,10.2-5.4,12.9-2.9,2.7-7.1,4-12.7,4.1h-2.1c-4.9,0-8.5-1.1-10.7-3.1-2.3-2.1-3.4-5.3-3.4-9.7s0-2.5.3-4.1l3-24.6h6.5l-3,24.9c-.1,1.5-.2,2.5-.2,3,0,2.7.6,4.6,1.9,5.8,1.3,1.2,3.4,1.8,6.4,1.8h2.1Z"/>
    <path class="st1" d="M1979.7,1084.5c3.4,0,5.9-.9,7.6-2.5s2.7-4.3,3.2-8l3-24.9h6.5l-3,24.6c-.8,5.9-2.6,10.2-5.4,12.9-2.9,2.7-7.1,4-12.7,4.1h-2.1c-4.9,0-8.5-1.1-10.7-3.1-2.3-2.1-3.4-5.3-3.4-9.7s0-2.5.3-4.1l3-24.6h6.5l-3,24.9c-.1,1.5-.2,2.5-.2,3,0,2.7.6,4.6,1.9,5.8,1.3,1.2,3.4,1.8,6.4,1.8h2.1Z"/>
  </g>
  <path class="st2" d="M806,1189c.6,143.6-115.4,260.5-259,261-143.6.6-260.5-115.4-261-259-.6-143.6,115.4-260.5,259-261,.8,0,1.7,0,2.5,0l-.9,153.7c-58.7-.3-106.6,47-107,105.7-.3,58.7,47,106.6,105.7,106.9,58.7.3,106.6-47,107-105.7v-1l153.7-.6Z"/>
  <path class="st2" d="M608,1131v-195l194,195h-194Z"/>
</svg>